<?xml version="1.0" standalone="no"?>
<!DOCTYPE svg PUBLIC "-//W3C//DTD SVG 20010904//EN"
 "http://www.w3.org/TR/2001/REC-SVG-20010904/DTD/svg10.dtd">
<svg version="1.0" xmlns="http://www.w3.org/2000/svg"
 width="480.000000pt" height="480.000000pt" viewBox="0 0 480.000000 480.000000"
 preserveAspectRatio="xMidYMid meet">
<metadata>
Created by potrace 1.11, written by Peter Selinger 2001-2013
</metadata>
<g transform="translate(0.000000,480.000000) scale(0.100000,-0.100000)"
fill="#000000" stroke="none">
<path d="M191 3993 c-81 -338 -108 -619 -87 -908 8 -108 9 -115 26 -220 9 -59
18 -103 34 -170 64 -265 214 -564 399 -790 70 -86 221 -237 302 -303 39 -31
72 -59 75 -62 13 -15 174 -123 256 -173 122 -73 352 -184 499 -240 120 -46
217 -70 330 -82 33 -4 73 -9 88 -11 34 -5 29 8 -18 46 -51 42 -318 311 -387
390 -35 41 -99 120 -141 175 -42 55 -80 105 -85 110 -19 24 -163 246 -199 310
-63 109 -176 340 -218 445 -20 52 -41 104 -46 115 -9 21 -51 168 -63 220 -4
17 38 -45 93 -137 251 -419 409 -631 644 -861 100 -99 302 -264 369 -302 9 -5
48 -29 86 -52 107 -66 233 -126 243 -116 11 11 23 179 23 313 -2 415 -96 826
-265 1160 -296 585 -862 1017 -1581 1205 -73 19 -149 37 -168 40 -19 3 -46 7
-60 10 -14 3 -46 7 -71 10 l-47 6 -31 -128z"/>
<path d="M3999 3056 c-2 -2 -26 -6 -54 -10 -27 -3 -61 -8 -75 -11 -14 -3 -36
-7 -50 -10 -120 -22 -296 -98 -413 -177 -211 -144 -430 -447 -521 -723 -49
-146 -112 -393 -103 -401 5 -6 165 64 266 115 115 59 291 161 396 231 121 81
170 114 175 119 3 4 28 21 55 40 28 19 118 85 200 146 83 61 157 115 165 120
26 16 -216 -251 -336 -369 -195 -193 -426 -394 -617 -540 -42 -32 -77 -61 -77
-63 0 -8 289 17 375 33 11 2 36 7 55 10 183 33 432 134 588 240 316 216 551
555 672 969 30 104 43 161 44 205 1 27 -9 30 -199 55 -27 4 -61 9 -75 12 -28
6 -465 14 -471 9z"/>
</g>
</svg>
