<?xml version="1.0" encoding="utf-8"?><svg viewBox="0 0 100 100" xmlns="http://www.w3.org/2000/svg" width="200px" height="200px" xmlns:xlink="http://www.w3.org/1999/xlink" style="width:100%;height:100%;background-size:initial;background-repeat-y:initial;background-repeat-x:initial;background-position-y:initial;background-position-x:initial;background-origin:initial;background-color:initial;background-clip:initial;background-attachment:initial;animation-play-state:paused" ><g class="ldl-scale" style="transform-origin:50% 50%;transform:rotate(0deg) scale(0.8, 0.8);animation-play-state:paused" ><path fill="#e0e0e0" d="M74.578 10A5.578 5.578 0 0 0 69 15.578v68.844A5.578 5.578 0 0 0 74.578 90h10.844A5.578 5.578 0 0 0 91 84.422V15.578A5.578 5.578 0 0 0 85.422 10H74.578z" style="fill:rgb(224, 224, 224);animation-play-state:paused" ></path>
<path fill="#e0e0e0" d="M44.578 10A5.578 5.578 0 0 0 39 15.578v68.844A5.578 5.578 0 0 0 44.578 90h10.844A5.578 5.578 0 0 0 61 84.422V15.578A5.578 5.578 0 0 0 55.422 10H44.578z" style="fill:rgb(224, 224, 224);animation-play-state:paused" ></path>
<path fill="#e0e0e0" d="M14.578 10A5.578 5.578 0 0 0 9 15.578v68.844A5.578 5.578 0 0 0 14.578 90h10.844A5.578 5.578 0 0 0 31 84.422V15.578A5.578 5.578 0 0 0 25.422 10H14.578z" style="fill:rgb(224, 224, 224);animation-play-state:paused" ></path>
<path fill="#f8b26a" d="M61 84.422V38.578A5.578 5.578 0 0 0 55.422 33H44.578A5.578 5.578 0 0 0 39 38.578v45.844A5.578 5.578 0 0 0 44.578 90h10.844A5.578 5.578 0 0 0 61 84.422z" style="fill:rgb(248, 178, 106);animation-play-state:paused" ></path>
<path fill="#abbd81" d="M91 84.422V72.578A5.578 5.578 0 0 0 85.422 67H74.578A5.578 5.578 0 0 0 69 72.578v11.844A5.578 5.578 0 0 0 74.578 90h10.844A5.578 5.578 0 0 0 91 84.422z" style="fill:rgb(171, 189, 129);animation-play-state:paused" ></path>
<path fill="#e15b64" d="M31 84.422V55.578A5.578 5.578 0 0 0 25.422 50H14.578A5.578 5.578 0 0 0 9 55.578v28.844A5.578 5.578 0 0 0 14.578 90h10.844A5.578 5.578 0 0 0 31 84.422z" style="fill:rgb(225, 91, 100);animation-play-state:paused" ></path>
<metadata xmlns:d="https://loading.io/stock/" style="animation-play-state:paused" ><d:name style="animation-play-state:paused" >bar</d:name>


<d:tags style="animation-play-state:paused" >bar,column,cylinder,percent,progress</d:tags>


<d:license style="animation-play-state:paused" >by</d:license>


<d:slug style="animation-play-state:paused" >3vqjkk</d:slug></metadata></g><!-- generated by https://loading.io/ --></svg>