<svg xmlns="http://www.w3.org/2000/svg" version="1.1" xmlns:xlink="http://www.w3.org/1999/xlink" xmlns:svgjs="http://svgjs.com/svgjs" width="1920" height="800" preserveAspectRatio="none" viewBox="0 0 1920 800"><g mask="url(&quot;#SvgjsMask1498&quot;)" fill="none"><rect width="1920" height="800" x="0" y="0" fill="url(#SvgjsLinearGradient1499)"></rect><path d="M221.48 56.05L286.44 93.55L286.44 168.55L221.48 206.05L156.53 168.55L156.53 93.55zM481.3 281.05L546.25 318.55L546.25 393.55L481.3 431.05L416.34 393.55L416.34 318.55zM546.25 168.55L611.2 206.05L611.2 281.05L546.25 318.55L481.3 281.05L481.3 206.05zM935.97 -56.45L1000.93 -18.95L1000.93 56.05L935.97 93.55L871.02 56.05L871.02 -18.95zM935.97 393.55L1000.93 431.05L1000.93 506.05L935.97 543.55L871.02 506.05L871.02 431.05zM1130.83 506.05L1195.79 543.55L1195.79 618.55L1130.83 656.05L1065.88 618.55L1065.88 543.55zM1195.79 393.55L1260.74 431.05L1260.74 506.05L1195.79 543.55L1130.83 506.05L1130.83 431.05zM1390.65 506.05L1455.6 543.55L1455.6 618.55L1390.65 656.05L1325.69 618.55L1325.69 543.55zM1520.56 506.05L1585.51 543.55L1585.51 618.55L1520.56 656.05L1455.6 618.55L1455.6 543.55zM1585.51 168.55L1650.46 206.05L1650.46 281.05L1585.51 318.55L1520.56 281.05L1520.56 206.05zM1650.46 731.05L1715.42 768.55L1715.42 843.55L1650.46 881.05L1585.51 843.55L1585.51 768.55zM1780.37 281.05L1845.32 318.55L1845.32 393.55L1780.37 431.05L1715.42 393.55L1715.42 318.55z" stroke="rgba(65, 25, 196, 1)" stroke-width="2"></path><path d="M213.98 56.05 a7.5 7.5 0 1 0 15 0 a7.5 7.5 0 1 0 -15 0zM278.94 93.55 a7.5 7.5 0 1 0 15 0 a7.5 7.5 0 1 0 -15 0zM278.94 168.55 a7.5 7.5 0 1 0 15 0 a7.5 7.5 0 1 0 -15 0zM213.98 206.05 a7.5 7.5 0 1 0 15 0 a7.5 7.5 0 1 0 -15 0zM149.03 168.55 a7.5 7.5 0 1 0 15 0 a7.5 7.5 0 1 0 -15 0zM149.03 93.55 a7.5 7.5 0 1 0 15 0 a7.5 7.5 0 1 0 -15 0zM473.8 281.05 a7.5 7.5 0 1 0 15 0 a7.5 7.5 0 1 0 -15 0zM538.75 318.55 a7.5 7.5 0 1 0 15 0 a7.5 7.5 0 1 0 -15 0zM538.75 393.55 a7.5 7.5 0 1 0 15 0 a7.5 7.5 0 1 0 -15 0zM473.8 431.05 a7.5 7.5 0 1 0 15 0 a7.5 7.5 0 1 0 -15 0zM408.84 393.55 a7.5 7.5 0 1 0 15 0 a7.5 7.5 0 1 0 -15 0zM408.84 318.55 a7.5 7.5 0 1 0 15 0 a7.5 7.5 0 1 0 -15 0zM538.75 168.55 a7.5 7.5 0 1 0 15 0 a7.5 7.5 0 1 0 -15 0zM603.7 206.05 a7.5 7.5 0 1 0 15 0 a7.5 7.5 0 1 0 -15 0zM603.7 281.05 a7.5 7.5 0 1 0 15 0 a7.5 7.5 0 1 0 -15 0zM473.8 206.05 a7.5 7.5 0 1 0 15 0 a7.5 7.5 0 1 0 -15 0zM928.47 -56.45 a7.5 7.5 0 1 0 15 0 a7.5 7.5 0 1 0 -15 0zM993.43 -18.95 a7.5 7.5 0 1 0 15 0 a7.5 7.5 0 1 0 -15 0zM993.43 56.05 a7.5 7.5 0 1 0 15 0 a7.5 7.5 0 1 0 -15 0zM928.47 93.55 a7.5 7.5 0 1 0 15 0 a7.5 7.5 0 1 0 -15 0zM863.52 56.05 a7.5 7.5 0 1 0 15 0 a7.5 7.5 0 1 0 -15 0zM863.52 -18.95 a7.5 7.5 0 1 0 15 0 a7.5 7.5 0 1 0 -15 0zM928.47 393.55 a7.5 7.5 0 1 0 15 0 a7.5 7.5 0 1 0 -15 0zM993.43 431.05 a7.5 7.5 0 1 0 15 0 a7.5 7.5 0 1 0 -15 0zM993.43 506.05 a7.5 7.5 0 1 0 15 0 a7.5 7.5 0 1 0 -15 0zM928.47 543.55 a7.5 7.5 0 1 0 15 0 a7.5 7.5 0 1 0 -15 0zM863.52 506.05 a7.5 7.5 0 1 0 15 0 a7.5 7.5 0 1 0 -15 0zM863.52 431.05 a7.5 7.5 0 1 0 15 0 a7.5 7.5 0 1 0 -15 0zM1123.33 506.05 a7.5 7.5 0 1 0 15 0 a7.5 7.5 0 1 0 -15 0zM1188.29 543.55 a7.5 7.5 0 1 0 15 0 a7.5 7.5 0 1 0 -15 0zM1188.29 618.55 a7.5 7.5 0 1 0 15 0 a7.5 7.5 0 1 0 -15 0zM1123.33 656.05 a7.5 7.5 0 1 0 15 0 a7.5 7.5 0 1 0 -15 0zM1058.38 618.55 a7.5 7.5 0 1 0 15 0 a7.5 7.5 0 1 0 -15 0zM1058.38 543.55 a7.5 7.5 0 1 0 15 0 a7.5 7.5 0 1 0 -15 0zM1188.29 393.55 a7.5 7.5 0 1 0 15 0 a7.5 7.5 0 1 0 -15 0zM1253.24 431.05 a7.5 7.5 0 1 0 15 0 a7.5 7.5 0 1 0 -15 0zM1253.24 506.05 a7.5 7.5 0 1 0 15 0 a7.5 7.5 0 1 0 -15 0zM1123.33 431.05 a7.5 7.5 0 1 0 15 0 a7.5 7.5 0 1 0 -15 0zM1383.15 506.05 a7.5 7.5 0 1 0 15 0 a7.5 7.5 0 1 0 -15 0zM1448.1 543.55 a7.5 7.5 0 1 0 15 0 a7.5 7.5 0 1 0 -15 0zM1448.1 618.55 a7.5 7.5 0 1 0 15 0 a7.5 7.5 0 1 0 -15 0zM1383.15 656.05 a7.5 7.5 0 1 0 15 0 a7.5 7.5 0 1 0 -15 0zM1318.19 618.55 a7.5 7.5 0 1 0 15 0 a7.5 7.5 0 1 0 -15 0zM1318.19 543.55 a7.5 7.5 0 1 0 15 0 a7.5 7.5 0 1 0 -15 0zM1513.06 506.05 a7.5 7.5 0 1 0 15 0 a7.5 7.5 0 1 0 -15 0zM1578.01 543.55 a7.5 7.5 0 1 0 15 0 a7.5 7.5 0 1 0 -15 0zM1578.01 618.55 a7.5 7.5 0 1 0 15 0 a7.5 7.5 0 1 0 -15 0zM1513.06 656.05 a7.5 7.5 0 1 0 15 0 a7.5 7.5 0 1 0 -15 0zM1578.01 168.55 a7.5 7.5 0 1 0 15 0 a7.5 7.5 0 1 0 -15 0zM1642.96 206.05 a7.5 7.5 0 1 0 15 0 a7.5 7.5 0 1 0 -15 0zM1642.96 281.05 a7.5 7.5 0 1 0 15 0 a7.5 7.5 0 1 0 -15 0zM1578.01 318.55 a7.5 7.5 0 1 0 15 0 a7.5 7.5 0 1 0 -15 0zM1513.06 281.05 a7.5 7.5 0 1 0 15 0 a7.5 7.5 0 1 0 -15 0zM1513.06 206.05 a7.5 7.5 0 1 0 15 0 a7.5 7.5 0 1 0 -15 0zM1642.96 731.05 a7.5 7.5 0 1 0 15 0 a7.5 7.5 0 1 0 -15 0zM1707.92 768.55 a7.5 7.5 0 1 0 15 0 a7.5 7.5 0 1 0 -15 0zM1707.92 843.55 a7.5 7.5 0 1 0 15 0 a7.5 7.5 0 1 0 -15 0zM1642.96 881.05 a7.5 7.5 0 1 0 15 0 a7.5 7.5 0 1 0 -15 0zM1578.01 843.55 a7.5 7.5 0 1 0 15 0 a7.5 7.5 0 1 0 -15 0zM1578.01 768.55 a7.5 7.5 0 1 0 15 0 a7.5 7.5 0 1 0 -15 0zM1772.87 281.05 a7.5 7.5 0 1 0 15 0 a7.5 7.5 0 1 0 -15 0zM1837.82 318.55 a7.5 7.5 0 1 0 15 0 a7.5 7.5 0 1 0 -15 0zM1837.82 393.55 a7.5 7.5 0 1 0 15 0 a7.5 7.5 0 1 0 -15 0zM1772.87 431.05 a7.5 7.5 0 1 0 15 0 a7.5 7.5 0 1 0 -15 0zM1707.92 393.55 a7.5 7.5 0 1 0 15 0 a7.5 7.5 0 1 0 -15 0zM1707.92 318.55 a7.5 7.5 0 1 0 15 0 a7.5 7.5 0 1 0 -15 0z" fill="rgba(65, 25, 196, 1)"></path><path d="M7.06 -49.39L50.36 -24.39L50.36 25.61L7.06 50.61L-36.24 25.61L-36.24 -24.39zM7.06 250.61L50.36 275.61L50.36 325.61L7.06 350.61L-36.24 325.61L-36.24 275.61zM7.06 400.61L50.36 425.61L50.36 475.61L7.06 500.61L-36.24 475.61L-36.24 425.61zM50.36 475.61L93.67 500.61L93.67 550.61L50.36 575.61L7.06 550.61L7.06 500.61zM93.67 100.61L136.97 125.61L136.97 175.61L93.67 200.61L50.36 175.61L50.36 125.61zM93.67 400.61L136.97 425.61L136.97 475.61L93.67 500.61L50.36 475.61L50.36 425.61zM136.97 475.61L180.27 500.61L180.27 550.61L136.97 575.61L93.67 550.61L93.67 500.61zM93.67 700.61L136.97 725.61L136.97 775.61L93.67 800.61L50.36 775.61L50.36 725.61zM136.97 775.61L180.27 800.61L180.27 850.61L136.97 875.61L93.67 850.61L93.67 800.61zM180.27 100.61L223.57 125.61L223.57 175.61L180.27 200.61L136.97 175.61L136.97 125.61zM223.57 475.61L266.88 500.61L266.88 550.61L223.57 575.61L180.27 550.61L180.27 500.61zM223.57 625.61L266.88 650.61L266.88 700.61L223.57 725.61L180.27 700.61L180.27 650.61zM180.27 700.61L223.57 725.61L223.57 775.61L180.27 800.61L136.97 775.61L136.97 725.61zM223.57 775.61L266.88 800.61L266.88 850.61L223.57 875.61L180.27 850.61L180.27 800.61zM266.88 100.61L310.18 125.61L310.18 175.61L266.88 200.61L223.57 175.61L223.57 125.61zM310.18 475.61L353.48 500.61L353.48 550.61L310.18 575.61L266.88 550.61L266.88 500.61zM310.18 625.61L353.48 650.61L353.48 700.61L310.18 725.61L266.88 700.61L266.88 650.61zM353.48 400.61L396.78 425.61L396.78 475.61L353.48 500.61L310.18 475.61L310.18 425.61zM483.39 325.61L526.69 350.61L526.69 400.61L483.39 425.61L440.09 400.61L440.09 350.61zM569.99 325.61L613.29 350.61L613.29 400.61L569.99 425.61L526.69 400.61L526.69 350.61zM569.99 625.61L613.29 650.61L613.29 700.61L569.99 725.61L526.69 700.61L526.69 650.61zM569.99 775.61L613.29 800.61L613.29 850.61L569.99 875.61L526.69 850.61L526.69 800.61zM613.29 550.61L656.6 575.61L656.6 625.61L613.29 650.61L569.99 625.61L569.99 575.61zM656.6 775.61L699.9 800.61L699.9 850.61L656.6 875.61L613.29 850.61L613.29 800.61zM743.2 175.61L786.5 200.61L786.5 250.61L743.2 275.61L699.9 250.61L699.9 200.61zM743.2 325.61L786.5 350.61L786.5 400.61L743.2 425.61L699.9 400.61L699.9 350.61zM743.2 475.61L786.5 500.61L786.5 550.61L743.2 575.61L699.9 550.61L699.9 500.61zM699.9 700.61L743.2 725.61L743.2 775.61L699.9 800.61L656.6 775.61L656.6 725.61zM786.5 -49.39L829.81 -24.39L829.81 25.61L786.5 50.61L743.2 25.61L743.2 -24.39zM829.81 25.61L873.11 50.61L873.11 100.61L829.81 125.61L786.5 100.61L786.5 50.61zM786.5 100.61L829.81 125.61L829.81 175.61L786.5 200.61L743.2 175.61L743.2 125.61zM829.81 475.61L873.11 500.61L873.11 550.61L829.81 575.61L786.5 550.61L786.5 500.61zM786.5 550.61L829.81 575.61L829.81 625.61L786.5 650.61L743.2 625.61L743.2 575.61zM786.5 700.61L829.81 725.61L829.81 775.61L786.5 800.61L743.2 775.61L743.2 725.61zM959.72 -49.39L1003.02 -24.39L1003.02 25.61L959.72 50.61L916.41 25.61L916.41 -24.39zM959.72 100.61L1003.02 125.61L1003.02 175.61L959.72 200.61L916.41 175.61L916.41 125.61zM1003.02 625.61L1046.32 650.61L1046.32 700.61L1003.02 725.61L959.72 700.61L959.72 650.61zM1046.32 -49.39L1089.62 -24.39L1089.62 25.61L1046.32 50.61L1003.02 25.61L1003.02 -24.39zM1046.32 100.61L1089.62 125.61L1089.62 175.61L1046.32 200.61L1003.02 175.61L1003.02 125.61zM1089.62 325.61L1132.92 350.61L1132.92 400.61L1089.62 425.61L1046.32 400.61L1046.32 350.61zM1089.62 475.61L1132.92 500.61L1132.92 550.61L1089.62 575.61L1046.32 550.61L1046.32 500.61zM1046.32 550.61L1089.62 575.61L1089.62 625.61L1046.32 650.61L1003.02 625.61L1003.02 575.61zM1089.62 625.61L1132.92 650.61L1132.92 700.61L1089.62 725.61L1046.32 700.61L1046.32 650.61zM1176.23 25.61L1219.53 50.61L1219.53 100.61L1176.23 125.61L1132.92 100.61L1132.92 50.61zM1176.23 325.61L1219.53 350.61L1219.53 400.61L1176.23 425.61L1132.92 400.61L1132.92 350.61zM1176.23 775.61L1219.53 800.61L1219.53 850.61L1176.23 875.61L1132.92 850.61L1132.92 800.61zM1262.83 625.61L1306.13 650.61L1306.13 700.61L1262.83 725.61L1219.53 700.61L1219.53 650.61zM1262.83 775.61L1306.13 800.61L1306.13 850.61L1262.83 875.61L1219.53 850.61L1219.53 800.61zM1349.44 475.61L1392.74 500.61L1392.74 550.61L1349.44 575.61L1306.13 550.61L1306.13 500.61zM1306.13 550.61L1349.44 575.61L1349.44 625.61L1306.13 650.61L1262.83 625.61L1262.83 575.61zM1349.44 775.61L1392.74 800.61L1392.74 850.61L1349.44 875.61L1306.13 850.61L1306.13 800.61zM1392.74 -49.39L1436.04 -24.39L1436.04 25.61L1392.74 50.61L1349.44 25.61L1349.44 -24.39zM1392.74 100.61L1436.04 125.61L1436.04 175.61L1392.74 200.61L1349.44 175.61L1349.44 125.61zM1436.04 325.61L1479.35 350.61L1479.35 400.61L1436.04 425.61L1392.74 400.61L1392.74 350.61zM1436.04 625.61L1479.35 650.61L1479.35 700.61L1436.04 725.61L1392.74 700.61L1392.74 650.61zM1436.04 775.61L1479.35 800.61L1479.35 850.61L1436.04 875.61L1392.74 850.61L1392.74 800.61zM1522.65 25.61L1565.95 50.61L1565.95 100.61L1522.65 125.61L1479.35 100.61L1479.35 50.61zM1479.35 250.61L1522.65 275.61L1522.65 325.61L1479.35 350.61L1436.04 325.61L1436.04 275.61zM1522.65 325.61L1565.95 350.61L1565.95 400.61L1522.65 425.61L1479.35 400.61L1479.35 350.61zM1522.65 625.61L1565.95 650.61L1565.95 700.61L1522.65 725.61L1479.35 700.61L1479.35 650.61zM1609.25 25.61L1652.56 50.61L1652.56 100.61L1609.25 125.61L1565.95 100.61L1565.95 50.61zM1609.25 625.61L1652.56 650.61L1652.56 700.61L1609.25 725.61L1565.95 700.61L1565.95 650.61zM1565.95 700.61L1609.25 725.61L1609.25 775.61L1565.95 800.61L1522.65 775.61L1522.65 725.61zM1609.25 775.61L1652.56 800.61L1652.56 850.61L1609.25 875.61L1565.95 850.61L1565.95 800.61zM1695.86 25.61L1739.16 50.61L1739.16 100.61L1695.86 125.61L1652.56 100.61L1652.56 50.61zM1695.86 175.61L1739.16 200.61L1739.16 250.61L1695.86 275.61L1652.56 250.61L1652.56 200.61zM1739.16 -49.39L1782.46 -24.39L1782.46 25.61L1739.16 50.61L1695.86 25.61L1695.86 -24.39zM1782.46 25.61L1825.77 50.61L1825.77 100.61L1782.46 125.61L1739.16 100.61L1739.16 50.61zM1739.16 250.61L1782.46 275.61L1782.46 325.61L1739.16 350.61L1695.86 325.61L1695.86 275.61zM1782.46 325.61L1825.77 350.61L1825.77 400.61L1782.46 425.61L1739.16 400.61L1739.16 350.61zM1739.16 400.61L1782.46 425.61L1782.46 475.61L1739.16 500.61L1695.86 475.61L1695.86 425.61zM1825.77 100.61L1869.07 125.61L1869.07 175.61L1825.77 200.61L1782.46 175.61L1782.46 125.61zM1955.67 25.61L1998.98 50.61L1998.98 100.61L1955.67 125.61L1912.37 100.61L1912.37 50.61zM1955.67 175.61L1998.98 200.61L1998.98 250.61L1955.67 275.61L1912.37 250.61L1912.37 200.61zM1912.37 250.61L1955.67 275.61L1955.67 325.61L1912.37 350.61L1869.07 325.61L1869.07 275.61z" stroke="rgba(153, 35, 198, 0.93)" stroke-width="2"></path></g><defs><mask id="SvgjsMask1498"><rect width="1920" height="800" fill="#ffffff"></rect></mask><linearGradient x1="14.58%" y1="-35%" x2="85.42%" y2="135%" gradientUnits="userSpaceOnUse" id="SvgjsLinearGradient1499"><stop stop-color="rgba(252, 255, 209, 1)" offset="0"></stop><stop stop-color="rgba(38, 158, 0, 1)" offset="1"></stop></linearGradient></defs></svg>