<?xml version="1.0" standalone="no"?><svg xmlns:xlink="http://www.w3.org/1999/xlink" xmlns="http://www.w3.org/2000/svg" viewBox="0 0 1000 818.186322920856" preserveAspectRatio="xMaxYMax slice"><g transform="scale(1.152375102705431)"><rect x="0" y="0" width="867.7777777777777" height="710" fill="#ffffff"/><rect x="157.77777777777777" y="157.77777777777777" width="78.88888888888889" height="78.88888888888889" fill="#ffffff"/><rect x="236.66666666666666" y="236.66666666666666" width="78.88888888888889" height="78.88888888888889" fill="#ffffff"/><rect x="276.11" y="236.67" width="39.44" height="39.44" fill="#769397"/><rect x="276.11" y="276.11" width="39.44" height="39.44" fill="#bfffdb"/><rect x="0" y="315.55555555555554" width="78.88888888888889" height="78.88888888888889" fill="#ffffff"/><rect x="0" y="315.56" width="39.44" height="39.44" fill="#d6dfe0"/><rect x="0" y="355" width="39.44" height="39.44" fill="#dcffeb"/><rect x="39.44" y="355" width="39.44" height="39.44" fill="#f1f4f5"/><rect x="78.88888888888889" y="315.55555555555554" width="78.88888888888889" height="78.88888888888889" fill="#ffffff"/><rect x="118.33" y="315.56" width="39.44" height="39.44" fill="#f2fff8"/><rect x="157.77777777777777" y="315.55555555555554" width="78.88888888888889" height="78.88888888888889" fill="#ffffff"/><rect x="157.78" y="315.56" width="39.44" height="39.44" fill="#739095"/><rect x="197.22" y="355" width="39.44" height="39.44" fill="#38ff8e"/><rect x="473.3333333333333" y="315.55555555555554" width="78.88888888888889" height="78.88888888888889" fill="#ffffff"/><rect x="473.33" y="315.56" width="39.44" height="39.44" fill="#d9ffe9"/><rect x="473.33" y="355" width="39.44" height="39.44" fill="#a8ffcd"/><rect x="512.78" y="355" width="39.44" height="39.44" fill="#577a80"/><rect x="552.2222222222222" y="315.55555555555554" width="78.88888888888889" height="78.88888888888889" fill="#ffffff"/><rect x="552.22" y="315.56" width="39.44" height="39.44" fill="#c0ffdb"/><rect x="552.22" y="355" width="39.44" height="39.44" fill="#6b898e"/><rect x="710" y="315.55555555555554" width="78.88888888888889" height="78.88888888888889" fill="#ffffff"/><rect x="710" y="355" width="39.44" height="39.44" fill="#ebfff4"/><rect x="749.44" y="355" width="39.44" height="39.44" fill="#3e666d"/><rect x="0" y="394.44444444444446" width="78.88888888888889" height="78.88888888888889" fill="#ffffff"/><rect x="0" y="394.44" width="39.44" height="39.44" fill="#ebf0f0"/><rect x="39.44" y="394.44" width="39.44" height="39.44" fill="#3eff91"/><rect x="0" y="433.89" width="39.44" height="39.44" fill="#769297"/><rect x="39.44" y="433.89" width="39.44" height="39.44" fill="#56ff9f"/><rect x="394.44444444444446" y="394.44444444444446" width="78.88888888888889" height="78.88888888888889" fill="#ffffff"/><rect x="433.89" y="394.44" width="39.44" height="39.44" fill="#76ffb1"/><rect x="394.44" y="433.89" width="39.44" height="39.44" fill="#a2ffca"/><rect x="473.3333333333333" y="394.44444444444446" width="78.88888888888889" height="78.88888888888889" fill="#ffffff"/><rect x="512.78" y="394.44" width="39.44" height="39.44" fill="#99aeb1"/><rect x="473.33" y="433.89" width="39.44" height="39.44" fill="#7d989d"/><rect x="552.2222222222222" y="394.44444444444446" width="78.88888888888889" height="78.88888888888889" fill="#ffffff"/><rect x="552.22" y="394.44" width="39.44" height="39.44" fill="#9cffc7"/><rect x="591.67" y="394.44" width="39.44" height="39.44" fill="#f0f3f4"/><rect x="552.22" y="433.89" width="39.44" height="39.44" fill="#d5ffe7"/><rect x="710" y="394.44444444444446" width="78.88888888888889" height="78.88888888888889" fill="#ffffff"/><rect x="710" y="394.44" width="39.44" height="39.44" fill="#4dff9a"/><rect x="749.44" y="394.44" width="39.44" height="39.44" fill="#a6b8bc"/><rect x="710" y="433.89" width="39.44" height="39.44" fill="#79959a"/><rect x="0" y="473.3333333333333" width="78.88888888888889" height="78.88888888888889" fill="#ffffff"/><rect x="0" y="473.33" width="39.44" height="39.44" fill="#abbcbf"/><rect x="39.44" y="473.33" width="39.44" height="39.44" fill="#c4ffdd"/><rect x="0" y="512.78" width="39.44" height="39.44" fill="#40ff92"/><rect x="39.44" y="512.78" width="39.44" height="39.44" fill="#6a898e"/><rect x="78.88888888888889" y="473.3333333333333" width="78.88888888888889" height="78.88888888888889" fill="#ffffff"/><rect x="78.89" y="473.33" width="39.44" height="39.44" fill="#97ffc4"/><rect x="118.33" y="473.33" width="39.44" height="39.44" fill="#e6ebec"/><rect x="118.33" y="512.78" width="39.44" height="39.44" fill="#597c81"/><rect x="157.77777777777777" y="473.3333333333333" width="78.88888888888889" height="78.88888888888889" fill="#ffffff"/><rect x="157.78" y="473.33" width="39.44" height="39.44" fill="#94aaae"/><rect x="197.22" y="473.33" width="39.44" height="39.44" fill="#38ff8e"/><rect x="157.78" y="512.78" width="39.44" height="39.44" fill="#41696f"/><rect x="197.22" y="512.78" width="39.44" height="39.44" fill="#9fffc8"/><rect x="236.66666666666666" y="473.3333333333333" width="78.88888888888889" height="78.88888888888889" fill="#ffffff"/><rect x="276.11" y="473.33" width="39.44" height="39.44" fill="#fefefe"/><rect x="236.67" y="512.78" width="39.44" height="39.44" fill="#9effc8"/><rect x="276.11" y="512.78" width="39.44" height="39.44" fill="#d2ffe5"/><rect x="394.44444444444446" y="473.3333333333333" width="78.88888888888889" height="78.88888888888889" fill="#ffffff"/><rect x="394.44" y="473.33" width="39.44" height="39.44" fill="#6effad"/><rect x="433.89" y="473.33" width="39.44" height="39.44" fill="#f9fffb"/><rect x="394.44" y="512.78" width="39.44" height="39.44" fill="#b0ffd2"/><rect x="433.89" y="512.78" width="39.44" height="39.44" fill="#b9ffd7"/><rect x="473.3333333333333" y="473.3333333333333" width="78.88888888888889" height="78.88888888888889" fill="#ffffff"/><rect x="473.33" y="512.78" width="39.44" height="39.44" fill="#6affaa"/><rect x="512.78" y="512.78" width="39.44" height="39.44" fill="#a6ffcc"/><rect x="552.2222222222222" y="473.3333333333333" width="78.88888888888889" height="78.88888888888889" fill="#ffffff"/><rect x="552.22" y="473.33" width="39.44" height="39.44" fill="#9affc5"/><rect x="552.22" y="512.78" width="39.44" height="39.44" fill="#42696f"/><rect x="591.67" y="512.78" width="39.44" height="39.44" fill="#67ffa9"/><rect x="631.1111111111111" y="473.3333333333333" width="78.88888888888889" height="78.88888888888889" fill="#ffffff"/><rect x="631.11" y="473.33" width="39.44" height="39.44" fill="#96ffc3"/><rect x="670.56" y="473.33" width="39.44" height="39.44" fill="#dae2e3"/><rect x="670.56" y="512.78" width="39.44" height="39.44" fill="#e8edee"/><rect x="710" y="473.3333333333333" width="78.88888888888889" height="78.88888888888889" fill="#ffffff"/><rect x="710" y="473.33" width="39.44" height="39.44" fill="#4fff9b"/><rect x="749.44" y="473.33" width="39.44" height="39.44" fill="#76ffb1"/><rect x="710" y="512.78" width="39.44" height="39.44" fill="#3a636a"/><rect x="788.8888888888889" y="473.3333333333333" width="78.88888888888889" height="78.88888888888889" fill="#ffffff"/><rect x="788.89" y="473.33" width="39.44" height="39.44" fill="#e7eced"/><rect x="788.89" y="512.78" width="39.44" height="39.44" fill="#bfccce"/><rect x="828.33" y="512.78" width="39.44" height="39.44" fill="#cdd7d9"/><rect x="0" y="552.2222222222222" width="78.88888888888889" height="78.88888888888889" fill="#ffffff"/><rect x="0" y="552.22" width="39.44" height="39.44" fill="#76ffb1"/><rect x="39.44" y="552.22" width="39.44" height="39.44" fill="#b3ffd4"/><rect x="0" y="591.67" width="39.44" height="39.44" fill="#f5fff9"/><rect x="39.44" y="591.67" width="39.44" height="39.44" fill="#f8f9f9"/><rect x="78.88888888888889" y="552.2222222222222" width="78.88888888888889" height="78.88888888888889" fill="#ffffff"/><rect x="78.89" y="552.22" width="39.44" height="39.44" fill="#4c7177"/><rect x="118.33" y="552.22" width="39.44" height="39.44" fill="#5a7c82"/><rect x="118.33" y="591.67" width="39.44" height="39.44" fill="#628388"/><rect x="236.66666666666666" y="552.2222222222222" width="78.88888888888889" height="78.88888888888889" fill="#ffffff"/><rect x="236.67" y="552.22" width="39.44" height="39.44" fill="#66868b"/><rect x="276.11" y="552.22" width="39.44" height="39.44" fill="#5dffa3"/><rect x="236.67" y="591.67" width="39.44" height="39.44" fill="#dcffeb"/><rect x="276.11" y="591.67" width="39.44" height="39.44" fill="#f6f8f8"/><rect x="315.55555555555554" y="552.2222222222222" width="78.88888888888889" height="78.88888888888889" fill="#ffffff"/><rect x="315.56" y="552.22" width="39.44" height="39.44" fill="#37ff8d"/><rect x="355" y="552.22" width="39.44" height="39.44" fill="#91ffc1"/><rect x="315.56" y="591.67" width="39.44" height="39.44" fill="#b0ffd2"/><rect x="355" y="591.67" width="39.44" height="39.44" fill="#d9e1e2"/><rect x="473.3333333333333" y="552.2222222222222" width="78.88888888888889" height="78.88888888888889" fill="#ffffff"/><rect x="473.33" y="552.22" width="39.44" height="39.44" fill="#a6ffcd"/><rect x="512.78" y="552.22" width="39.44" height="39.44" fill="#b4ffd4"/><rect x="473.33" y="591.67" width="39.44" height="39.44" fill="#98ffc4"/><rect x="512.78" y="591.67" width="39.44" height="39.44" fill="#8ea6aa"/><rect x="552.2222222222222" y="552.2222222222222" width="78.88888888888889" height="78.88888888888889" fill="#ffffff"/><rect x="552.22" y="552.22" width="39.44" height="39.44" fill="#eff3f3"/><rect x="591.67" y="552.22" width="39.44" height="39.44" fill="#64ffa7"/><rect x="552.22" y="591.67" width="39.44" height="39.44" fill="#9aafb2"/><rect x="591.67" y="591.67" width="39.44" height="39.44" fill="#7fffb6"/><rect x="631.1111111111111" y="552.2222222222222" width="78.88888888888889" height="78.88888888888889" fill="#ffffff"/><rect x="631.11" y="552.22" width="39.44" height="39.44" fill="#b0c0c3"/><rect x="670.56" y="552.22" width="39.44" height="39.44" fill="#bfccce"/><rect x="631.11" y="591.67" width="39.44" height="39.44" fill="#5effa4"/><rect x="670.56" y="591.67" width="39.44" height="39.44" fill="#a7babd"/><rect x="710" y="552.2222222222222" width="78.88888888888889" height="78.88888888888889" fill="#ffffff"/><rect x="710" y="552.22" width="39.44" height="39.44" fill="#c3cfd1"/><rect x="749.44" y="552.22" width="39.44" height="39.44" fill="#68878d"/><rect x="710" y="591.67" width="39.44" height="39.44" fill="#b5ffd5"/><rect x="788.8888888888889" y="552.2222222222222" width="78.88888888888889" height="78.88888888888889" fill="#ffffff"/><rect x="788.89" y="552.22" width="39.44" height="39.44" fill="#caffe1"/><rect x="828.33" y="552.22" width="39.44" height="39.44" fill="#cbd6d8"/><rect x="788.89" y="591.67" width="39.44" height="39.44" fill="#f2fff8"/><rect x="828.33" y="591.67" width="39.44" height="39.44" fill="#628288"/><rect x="0" y="631.1111111111111" width="78.88888888888889" height="78.88888888888889" fill="#ffffff"/><rect x="0" y="631.11" width="39.44" height="39.44" fill="#aeffd1"/><rect x="39.44" y="631.11" width="39.44" height="39.44" fill="#a4b7ba"/><rect x="0" y="670.56" width="39.44" height="39.44" fill="#69888d"/><rect x="39.44" y="670.56" width="39.44" height="39.44" fill="#75ffb0"/><rect x="78.88888888888889" y="631.1111111111111" width="78.88888888888889" height="78.88888888888889" fill="#ffffff"/><rect x="78.89" y="631.11" width="39.44" height="39.44" fill="#cfd9da"/><rect x="118.33" y="631.11" width="39.44" height="39.44" fill="#66ffa8"/><rect x="78.89" y="670.56" width="39.44" height="39.44" fill="#5a7c82"/><rect x="118.33" y="670.56" width="39.44" height="39.44" fill="#44ff95"/><rect x="157.77777777777777" y="631.1111111111111" width="78.88888888888889" height="78.88888888888889" fill="#ffffff"/><rect x="157.78" y="631.11" width="39.44" height="39.44" fill="#c8ffe0"/><rect x="197.22" y="631.11" width="39.44" height="39.44" fill="#ecf0f0"/><rect x="157.78" y="670.56" width="39.44" height="39.44" fill="#ceffe3"/><rect x="197.22" y="670.56" width="39.44" height="39.44" fill="#8cffbd"/><rect x="236.66666666666666" y="631.1111111111111" width="78.88888888888889" height="78.88888888888889" fill="#ffffff"/><rect x="236.67" y="631.11" width="39.44" height="39.44" fill="#829ca0"/><rect x="276.11" y="631.11" width="39.44" height="39.44" fill="#8ba3a7"/><rect x="236.67" y="670.56" width="39.44" height="39.44" fill="#7bffb4"/><rect x="276.11" y="670.56" width="39.44" height="39.44" fill="#718e93"/><rect x="315.55555555555554" y="631.1111111111111" width="78.88888888888889" height="78.88888888888889" fill="#ffffff"/><rect x="315.56" y="631.11" width="39.44" height="39.44" fill="#f3fff8"/><rect x="355" y="631.11" width="39.44" height="39.44" fill="#66ffa8"/><rect x="315.56" y="670.56" width="39.44" height="39.44" fill="#839da1"/><rect x="355" y="670.56" width="39.44" height="39.44" fill="#c2cfd1"/><rect x="394.44444444444446" y="631.1111111111111" width="78.88888888888889" height="78.88888888888889" fill="#ffffff"/><rect x="394.44" y="631.11" width="39.44" height="39.44" fill="#cfd9db"/><rect x="433.89" y="631.11" width="39.44" height="39.44" fill="#4f747a"/><rect x="394.44" y="670.56" width="39.44" height="39.44" fill="#ebeff0"/><rect x="433.89" y="670.56" width="39.44" height="39.44" fill="#67ffa8"/><rect x="473.3333333333333" y="631.1111111111111" width="78.88888888888889" height="78.88888888888889" fill="#ffffff"/><rect x="473.33" y="631.11" width="39.44" height="39.44" fill="#bbffd8"/><rect x="512.78" y="631.11" width="39.44" height="39.44" fill="#bfffda"/><rect x="473.33" y="670.56" width="39.44" height="39.44" fill="#c2cfd1"/><rect x="512.78" y="670.56" width="39.44" height="39.44" fill="#d8e0e2"/><rect x="552.2222222222222" y="631.1111111111111" width="78.88888888888889" height="78.88888888888889" fill="#ffffff"/><rect x="552.22" y="631.11" width="39.44" height="39.44" fill="#4d7278"/><rect x="591.67" y="631.11" width="39.44" height="39.44" fill="#43ff94"/><rect x="552.22" y="670.56" width="39.44" height="39.44" fill="#fcfdfd"/><rect x="591.67" y="670.56" width="39.44" height="39.44" fill="#acffd0"/><rect x="631.1111111111111" y="631.1111111111111" width="78.88888888888889" height="78.88888888888889" fill="#ffffff"/><rect x="631.11" y="631.11" width="39.44" height="39.44" fill="#3cff90"/><rect x="670.56" y="631.11" width="39.44" height="39.44" fill="#78ffb2"/><rect x="631.11" y="670.56" width="39.44" height="39.44" fill="#fdfffe"/><rect x="670.56" y="670.56" width="39.44" height="39.44" fill="#50ff9b"/><rect x="710" y="631.1111111111111" width="78.88888888888889" height="78.88888888888889" fill="#ffffff"/><rect x="710" y="631.11" width="39.44" height="39.44" fill="#9cffc7"/><rect x="749.44" y="631.11" width="39.44" height="39.44" fill="#c0cdcf"/><rect x="710" y="670.56" width="39.44" height="39.44" fill="#f8fffb"/><rect x="749.44" y="670.56" width="39.44" height="39.44" fill="#dbffeb"/><rect x="788.8888888888889" y="631.1111111111111" width="78.88888888888889" height="78.88888888888889" fill="#ffffff"/><rect x="788.89" y="631.11" width="39.44" height="39.44" fill="#b8ffd6"/><rect x="828.33" y="631.11" width="39.44" height="39.44" fill="#f5fff9"/><rect x="788.89" y="670.56" width="39.44" height="39.44" fill="#f3fff8"/><rect x="828.33" y="670.56" width="39.44" height="39.44" fill="#d4ffe6"/></g></svg>