<?xml version="1.0" standalone="no"?><svg xmlns:xlink="http://www.w3.org/1999/xlink" xmlns="http://www.w3.org/2000/svg" viewBox="0 0 1000 800" preserveAspectRatio="xMaxYMax slice"><g transform="scale(1.1267605633802817)"><rect x="0" y="0" width="887.5" height="710" fill="#ffffff"/><rect x="355" y="0" width="177.5" height="177.5" fill="#ffffff"/><path d="M 443.75 0 A 88.75 88.75 0 0 1  532.5 88.75 L 443.75 0 A 88.75 88.75 0 0 0 532.5 88.75" fill="#a6b009"/><path d="M 355 88.75 A 88.75 88.75 0 0 1  443.75 177.5 L 355 88.75 A 88.75 88.75 0 0 0 443.75 177.5" fill="#f2f4db"/><path d="M 443.75 88.75 A 88.75 88.75 0 0 1  532.5 177.5 L 443.75 88.75 A 88.75 88.75 0 0 0 532.5 177.5" fill="#ced377"/><rect x="710" y="177.5" width="177.5" height="177.5" fill="#ffffff"/><path d="M 798.75 177.5 A 88.75 88.75 0 0 1  887.5 266.25 L 798.75 177.5 A 88.75 88.75 0 0 0 887.5 266.25" fill="#91d4dc"/><path d="M 798.75 355 A 88.75 88.75 0 0 1  887.5 266.25 L 798.75 355 A 88.75 88.75 0 0 0 887.5 266.25" fill="#b1ba27"/><rect x="355" y="355" width="177.5" height="177.5" fill="#ffffff"/><path d="M 443.75 355 A 88.75 88.75 0 0 1  532.5 443.75 L 443.75 355 A 88.75 88.75 0 0 0 532.5 443.75" fill="#eff9fa"/><path d="M 443.75 443.75 A 88.75 88.75 0 0 1  532.5 532.5 L 443.75 443.75 A 88.75 88.75 0 0 0 532.5 532.5" fill="#85d0d8"/><path d="M 710 355 A 177.5 177.5 0 0 1  887.5 532.5 L 710 355 A 177.5 177.5 0 0 0 887.5 532.5" fill="#e2e5ae"/><path d="M 177.5 532.5 A 177.5 177.5 0 0 1  355 710 L 177.5 532.5 A 177.5 177.5 0 0 0 355 710" fill="#c8ce66"/><path d="M 532.5 710 A 177.5 177.5 0 0 1  710 532.5 L 532.5 710 A 177.5 177.5 0 0 0 710 532.5" fill="#c5cc5f"/></g></svg>