<svg xmlns="http://www.w3.org/2000/svg" version="1.1" xmlns:xlink="http://www.w3.org/1999/xlink" xmlns:svgjs="http://svgjs.com/svgjs" width="1440" height="560" preserveAspectRatio="none" viewBox="0 0 1440 560"><g mask="url(&quot;#SvgjsMask1053&quot;)" fill="none"><rect width="1440" height="560" x="0" y="0" fill="rgba(26, 71, 14, 1)"></rect><path d="M 0,3 C 18,79.8 54,381.8 90,387 C 126,392.2 144,12.2 180,29 C 216,45.8 234,470.6 270,471 C 306,471.4 324,66.2 360,31 C 396,-4.2 414,267.4 450,295 C 486,322.6 504,164.2 540,169 C 576,173.8 594,333.2 630,319 C 666,304.8 684,89.6 720,98 C 756,106.4 774,341.2 810,361 C 846,380.8 864,191.6 900,197 C 936,202.4 954,423 990,388 C 1026,353 1044,32.8 1080,22 C 1116,11.2 1134,329.6 1170,334 C 1206,338.4 1224,38.2 1260,44 C 1296,49.8 1314,351 1350,363 C 1386,375 1422,155.8 1440,104L1440 560L0 560z" fill="rgba(55, 126, 24, 1)"></path><path d="M 0,309 C 57.6,296.2 172.8,220 288,245 C 403.2,270 460.8,460.2 576,434 C 691.2,407.8 748.8,107.6 864,114 C 979.2,120.4 1036.8,438 1152,466 C 1267.2,494 1382.4,296.4 1440,254L1440 560L0 560z" fill="rgba(86, 171, 34, 1)"></path></g><defs><mask id="SvgjsMask1053"><rect width="1440" height="560" fill="#ffffff"></rect></mask></defs></svg>