<svg xmlns="http://www.w3.org/2000/svg" version="1.1" xmlns:xlink="http://www.w3.org/1999/xlink" xmlns:svgjs="http://svgjs.com/svgjs" width="1920" height="800" preserveAspectRatio="none" viewBox="0 0 1920 800"><g mask="url(&quot;#SvgjsMask1067&quot;)" fill="none"><rect width="1920" height="800" x="0" y="0" fill="rgba(26, 71, 14, 1)"></rect><path d="M 0,475 C 24,438.8 72,264.4 120,294 C 168,323.6 192,629.8 240,623 C 288,616.2 312,280.6 360,260 C 408,239.4 432,501.8 480,520 C 528,538.2 552,354.6 600,351 C 648,347.4 672,524.4 720,502 C 768,479.6 792,231.8 840,239 C 888,246.2 912,557.2 960,538 C 1008,518.8 1032,121.2 1080,143 C 1128,164.8 1152,616.6 1200,647 C 1248,677.4 1272,335.2 1320,295 C 1368,254.8 1392,479.6 1440,446 C 1488,412.4 1512,135.8 1560,127 C 1608,118.2 1632,379.6 1680,402 C 1728,424.4 1752,203.8 1800,239 C 1848,274.2 1896,510.2 1920,578L1920 800L0 800z" fill="rgba(55, 126, 24, 1)"></path><path d="M 0,403 C 76.8,371.4 230.4,180.6 384,245 C 537.6,309.4 614.4,697.8 768,725 C 921.6,752.2 998.4,425.6 1152,381 C 1305.6,336.4 1382.4,529.8 1536,502 C 1689.6,474.2 1843.2,294 1920,242L1920 800L0 800z" fill="rgba(86, 171, 34, 1)"></path></g><defs><mask id="SvgjsMask1067"><rect width="1920" height="800" fill="#ffffff"></rect></mask></defs></svg>