<?xml version="1.0" encoding="utf-8"?><svg xmlns="http://www.w3.org/2000/svg" xmlns:xlink="http://www.w3.org/1999/xlink" width="1424" height="609" preserveAspectRatio="xMidYMid" viewBox="0 0 1424 609" style="z-index:1;margin-right:-2px;display:block;animation-play-state:paused" ><g transform="translate(712,304.5) scale(1,1) translate(-712,-304.5)" style="transform:matrix(1, 0, 0, 1, 0, 0);animation-play-state:paused" ><linearGradient id="lg-0.3982344561676585" x1="0" x2="1" y1="0" y2="0" style="animation-play-state:paused" ><stop stop-color="#ffb6bb" offset="0" style="animation-play-state:paused" ></stop>

  
<stop stop-color="#ffe691" offset="1" style="animation-play-state:paused" ></stop></linearGradient>
<path d="M 0 0 M 0 341.047 Q 118.667 509.042 237.333 503.057 T 474.667 403.624 T 712 439.292 T 949.333 489.408 T 1186.67 402.001 T 1424 369.3 L 1424 237.745 Q 1305.33 166.766 1186.67 162.98 T 949.333 147.412 T 712 192.703 T 474.667 93.9455 T 237.333 232.622 T 0 90.5968 Z" fill="url(#lg-0.3982344561676585)" opacity="0.4" style="opacity:0.4;animation-play-state:paused" ></path>
<path d="M 0 0 M 0 435.115 Q 118.667 462.546 237.333 457.213 T 474.667 445.535 T 712 453.195 T 949.333 411.743 T 1186.67 444.34 T 1424 407.112 L 1424 261.23 Q 1305.33 214.054 1186.67 211.491 T 949.333 126.181 T 712 209.683 T 474.667 129.117 T 237.333 216.601 T 0 218.187 Z" fill="url(#lg-0.3982344561676585)" opacity="0.4" style="opacity:0.4;animation-play-state:paused" ></path>
<path d="M 0 0 M 0 407.451 Q 118.667 429.097 237.333 424.184 T 474.667 425.655 T 712 410.368 T 949.333 479.534 T 1186.67 418.803 T 1424 336.181 L 1424 184.964 Q 1305.33 234.099 1186.67 228.69 T 949.333 145.48 T 712 235.69 T 474.667 123.858 T 237.333 139.395 T 0 250.534 Z" fill="url(#lg-0.3982344561676585)" opacity="0.4" style="opacity:0.4;animation-play-state:paused" ></path>
<path d="M 0 0 M 0 429.893 Q 118.667 406.069 237.333 401.788 T 474.667 370.033 T 712 488.757 T 949.333 411.489 T 1186.67 374.283 T 1424 449.114 L 1424 238.732 Q 1305.33 167.275 1186.67 164.908 T 949.333 102.483 T 712 128.973 T 474.667 147.983 T 237.333 142.045 T 0 217.914 Z" fill="url(#lg-0.3982344561676585)" opacity="0.4" style="opacity:0.4;animation-play-state:paused" ></path></g></svg>