<?xml version="1.0" encoding="utf-8"?><svg xmlns="http://www.w3.org/2000/svg" xmlns:xlink="http://www.w3.org/1999/xlink" width="1518" height="837" preserveAspectRatio="xMidYMid" viewBox="0 0 1518 837" style="z-index:1;margin-right:-2px;display:block;background-repeat-y:initial;background-repeat-x:initial;animation-play-state:paused" ><g transform="translate(759,418.5) scale(1,1) translate(-759,-418.5)" style="transform:matrix(1, 0, 0, 1, 0, 0);animation-play-state:paused" ><linearGradient id="lg-0.5965140427015843" x1="0" x2="1" y1="0" y2="0" style="animation-play-state:paused" ><stop stop-color="#ee5a30" offset="0" style="animation-play-state:paused" ></stop>

  
<stop stop-color="#ffffff" offset="1" style="animation-play-state:paused" ></stop></linearGradient>
<path d="M 0 0 L 0 798.002 Q 151.8 779.131 303.6 745.237 T 607.2 554.546 T 910.8 510.358 T 1214.4 453.676 T 1518 269.828 L 1518 0 Z" fill="url(#lg-0.5965140427015843)" opacity="0.4" style="opacity:0.4;animation-play-state:paused" ></path>
<path d="M 0 0 L 0 699.822 Q 151.8 725.033 303.6 693.473 T 607.2 607.832 T 910.8 546.259 T 1214.4 529.31 T 1518 454.751 L 1518 0 Z" fill="url(#lg-0.5965140427015843)" opacity="0.4" style="opacity:0.4;animation-play-state:paused" ></path>
<path d="M 0 0 L 0 769.937 Q 151.8 784.346 303.6 741.855 T 607.2 660.326 T 910.8 524.818 T 1214.4 455.824 T 1518 454.996 L 1518 0 Z" fill="url(#lg-0.5965140427015843)" opacity="0.4" style="opacity:0.4;animation-play-state:paused" ></path>
<path d="M 0 0 L 0 775.851 Q 151.8 695.479 303.6 677.087 T 607.2 684.988 T 910.8 493.755 T 1214.4 523.194 T 1518 441.161 L 1518 0 Z" fill="url(#lg-0.5965140427015843)" opacity="0.4" style="opacity:0.4;animation-play-state:paused" ></path>
<path d="M 0 0 L 0 763.683 Q 151.8 737.861 303.6 709.327 T 607.2 586.765 T 910.8 541.444 T 1214.4 393.587 T 1518 347.802 L 1518 0 Z" fill="url(#lg-0.5965140427015843)" opacity="0.4" style="opacity:0.4;animation-play-state:paused" ></path></g></svg>