<svg xmlns="http://www.w3.org/2000/svg" version="1.1" xmlns:xlink="http://www.w3.org/1999/xlink" xmlns:svgjs="http://svgjs.com/svgjs" width="1440" height="560" preserveAspectRatio="none" viewBox="0 0 1440 560"><g mask="url(&quot;#SvgjsMask1166&quot;)" fill="none"><path d="M -1.775338811734457,146 C 70.22,190.8 214.22,351.8 358.22466118826554,370 C 502.22,388.2 574.22,242.2 718.2246611882656,237 C 862.22,231.8 934.22,341 1078.2246611882656,344 C 1222.22,347 1294.22,252.6 1438.2246611882656,252 C 1582.22,251.4 1797.87,368.8 1798.2246611882656,341 C 1798.58,313.2 1511.64,158.6 1440,113" stroke="rgba(237, 122, 122, 1)" stroke-width="2"></path><path d="M -163.24985403485533,290 C -91.25,277.2 52.75,180.2 196.75014596514467,226 C 340.75,271.8 412.75,556.2 556.7501459651446,519 C 700.75,481.8 772.75,43.6 916.7501459651446,40 C 1060.75,36.4 1132.75,499.6 1276.7501459651446,501 C 1420.75,502.4 1604.1,49.2 1636.7501459651446,47 C 1669.4,44.8 1479.35,401.4 1440,490" stroke="rgba(12, 225, 29, 1)" stroke-width="2"></path><path d="M -141.92301621596724,522 C -69.92,473 74.08,287.2 218.07698378403276,277 C 362.08,266.8 434.08,525.6 578.0769837840328,471 C 722.08,416.4 794.08,41.6 938.0769837840328,4 C 1082.08,-33.6 1154.08,275.8 1298.0769837840328,283 C 1442.08,290.2 1629.69,13.4 1658.0769837840328,40 C 1686.46,66.6 1483.62,340.8 1440,416" stroke="rgba(12, 225, 29, 1)" stroke-width="2"></path><path d="M -484.02310072357966,34 C -412.02,100.4 -268.02,323.2 -124.02310072357966,366 C 19.98,408.8 91.98,221.2 235.97689927642034,248 C 379.98,274.8 451.98,517 595.9768992764203,500 C 739.98,483 811.98,187.2 955.9768992764203,163 C 1099.98,138.8 1219.17,399.8 1315.9768992764202,379 C 1412.78,358.2 1415.2,123 1440,59" stroke="rgba(12, 225, 29, 1)" stroke-width="2"></path><path d="M -345.1929981759291,556 C -273.19,454.6 -129.19,73.2 14.807001824070856,49 C 158.81,24.8 230.81,440 374.8070018240709,435 C 518.81,430 590.81,11 734.8070018240709,24 C 878.81,37 950.81,490.2 1094.8070018240708,500 C 1238.81,509.8 1385.77,84.2 1454.8070018240708,73 C 1523.85,61.8 1442.96,369.8 1440,444" stroke="rgba(237, 122, 122, 1)" stroke-width="2"></path><path d="M -160.69136145321028,499 C -88.69,437.6 55.31,205.8 199.30863854678972,192 C 343.31,178.2 415.31,458.8 559.3086385467898,430 C 703.31,401.2 775.31,58.4 919.3086385467898,48 C 1063.31,37.6 1135.31,359.2 1279.3086385467898,378 C 1423.31,396.8 1607.17,115 1639.3086385467898,142 C 1671.45,169 1479.86,438.8 1440,513" stroke="rgba(51, 121, 194, 0.58)" stroke-width="2"></path><path d="M -493.5495991397007,92 C -421.55,152.2 -277.55,393.4 -133.54959913970075,393 C 10.45,392.6 82.45,61.6 226.45040086029925,90 C 370.45,118.4 442.45,513.2 586.4504008602993,535 C 730.45,556.8 802.45,240 946.4504008602993,199 C 1090.45,158 1207.74,328.6 1306.4504008602992,330 C 1405.16,331.4 1413.29,230.8 1440,206" stroke="rgba(51, 121, 194, 0.58)" stroke-width="2"></path><path d="M -225.52686266488186,209 C -153.53,258.8 -9.53,465 134.47313733511814,458 C 278.47,451 350.47,155 494.47313733511817,174 C 638.47,193 710.47,539.4 854.4731373351182,553 C 998.47,566.6 1070.47,280 1214.473137335118,242 C 1358.47,204 1529.37,385.6 1574.473137335118,363 C 1619.58,340.4 1466.89,175.8 1440,129" stroke="rgba(237, 122, 122, 1)" stroke-width="2"></path><path d="M -699.6691758010827,88 C -627.67,151 -483.67,373 -339.6691758010827,403 C -195.67,433 -123.67,241.6 20.3308241989173,238 C 164.33,234.4 236.33,394.8 380.3308241989173,385 C 524.33,375.2 596.33,194.8 740.3308241989173,189 C 884.33,183.2 960.4,347.8 1100.3308241989173,356 C 1240.26,364.2 1372.07,255.2 1440,230" stroke="rgba(12, 225, 29, 1)" stroke-width="2"></path><path d="M -492.93940334568754,166 C -420.94,223.2 -276.94,481.2 -132.9394033456875,452 C 11.06,422.8 83.06,8.8 227.0605966543125,20 C 371.06,31.2 443.06,497 587.0605966543125,508 C 731.06,519 803.06,100.4 947.0605966543125,75 C 1091.06,49.6 1208.47,342.8 1307.0605966543126,381 C 1405.65,419.2 1413.41,289 1440,266" stroke="rgba(51, 121, 194, 0.58)" stroke-width="2"></path></g><defs><mask id="SvgjsMask1166"><rect width="1440" height="560" fill="#ffffff"></rect></mask></defs></svg>